<?xml version="1.0" encoding="UTF-8"?>
<!DOCTYPE svg PUBLIC "-//W3C//DTD SVG 1.0//EN" "http://www.w3.org/TR/2001/REC-SVG-20010904/DTD/svg10.dtd">
<!-- Creator: CorelDRAW X6 -->
<svg xmlns="http://www.w3.org/2000/svg" xml:space="preserve" width="2032px" height="594px" version="1.0" style="shape-rendering:geometricPrecision; text-rendering:geometricPrecision; image-rendering:optimizeQuality; fill-rule:evenodd; clip-rule:evenodd"
viewBox="0 0 2032 594"
 xmlns:xlink="http://www.w3.org/1999/xlink">
 <defs>
  <style type="text/css">
   <![CDATA[
    .str0 {stroke:#9E9E9D;stroke-width:2.08384}
    .fil4 {fill:none}
    .fil2 {fill:#9E9E9D}
    .fil1 {fill:#B3B3B3}
    .fil0 {fill:#0B54A0}
    .fil3 {fill:#9E9E9D;fill-rule:nonzero}
   ]]>
  </style>
 </defs>
 <g id="Layer_x0020_1">
  <metadata id="CorelCorpID_0Corel-Layer"/>
  <g id="_1070830688">
   <g>
    <path class="fil0" d="M1687 105l8 0 333 0 0 72 -126 0 0 209 -90 0 0 -209 -117 0 0 209 -90 0 0 -102 -194 0 0 102 -90 0 0 -281 90 0 0 101 194 0 0 -101 82 0zm-1381 0l90 0 0 0 0 101 194 0 0 -101 7 0 83 0 119 0c43,0 69,0 77,1 18,1 32,4 40,10 10,6 17,15 20,26 3,11 4,23 4,36 0,16 -2,29 -5,37 -5,14 -16,23 -33,28 12,2 22,6 28,10 14,9 20,28 20,58 0,23 -3,40 -10,51 -7,9 -16,16 -29,20 -11,2 -30,4 -55,4l-56 0 -120 0 -83 0 -7 0 0 -102 -194 0 0 102 0 0 -87 0 -3 0 0 -210 -5 0 -148 210 -149 0 0 -281 87 0 -2 210 9 0 147 -210 61 0zm374 66l0 45 119 0c27,0 43,-1 48,-3 6,-3 10,-10 10,-20 0,-12 -4,-18 -12,-20 -4,-1 -19,-2 -46,-2l-119 0zm0 101l0 47 120 0c22,0 35,0 39,-1 13,0 21,-3 24,-7 3,-4 4,-9 4,-17 0,-11 -4,-18 -13,-20 -2,-1 -21,-2 -54,-2l-120 0z"/>
    <path class="fil1" d="M44 0c24,0 43,20 43,44 0,24 -19,43 -43,43 -24,0 -44,-19 -44,-43 0,-24 20,-44 44,-44z"/>
    <polygon class="fil1" points="977,318 1289,318 1289,386 977,386 "/>
    <polygon class="fil1" points="977,211 1289,211 1289,278 977,278 "/>
    <polygon class="fil1" points="977,104 1289,104 1289,171 977,171 "/>
   </g>
   <path class="fil2" d="M623 514c13,0 24,10 24,23 0,13 -11,23 -24,23 -13,0 -23,-10 -23,-23 0,-13 10,-23 23,-23z"/>
   <path class="fil2" d="M1222 511c13,0 24,11 24,24 0,13 -11,23 -24,23 -13,0 -23,-10 -23,-23 0,-13 10,-24 23,-24z"/>
   <g>
    <path class="fil3" d="M10 593l-1 -10c2,0 3,1 5,1 2,0 3,-1 4,-2 2,0 3,-2 4,-3 0,-1 1,-4 3,-11l-20 -65 10 0 11 37c1,5 2,10 4,16 1,-6 2,-11 3,-15l12 -38 9 0 -21 66c-2,9 -4,14 -6,17 -1,3 -3,5 -5,6 -2,2 -4,2 -7,2 -1,0 -3,0 -5,-1zm67 -90l42 0 0 65 -9 0 0 -56 -24 0 0 56 -9 0 0 -65zm105 57c-3,3 -6,5 -9,7 -3,2 -7,2 -10,2 -6,0 -10,-1 -14,-5 -3,-3 -5,-8 -5,-13 0,-4 1,-7 3,-10 1,-3 3,-5 6,-7 3,-2 7,-3 12,-4 8,-1 13,-2 17,-4l0 -2c0,-5 -1,-8 -3,-10 -2,-2 -5,-4 -10,-4 -4,0 -8,1 -10,3 -2,2 -3,5 -4,10l-9 -2c1,-7 4,-12 8,-15 3,-3 9,-5 16,-5 6,0 10,1 13,3 4,2 6,5 6,8 1,3 2,8 2,14l0 15c0,10 0,16 0,19 1,3 1,5 3,8l-10 0c-1,-2 -1,-5 -2,-8zm0 -25c-4,2 -9,3 -15,4 -4,1 -7,2 -8,3 -2,0 -3,2 -4,3 -1,2 -1,3 -1,5 0,4 1,6 3,8 2,2 4,3 8,3 3,0 6,-1 9,-3 2,-2 4,-4 6,-7 1,-2 2,-6 2,-12l0 -4zm38 -32l9 0 0 28c3,0 5,-1 6,-2 1,-2 3,-6 5,-12 2,-5 3,-9 5,-10 1,-2 2,-3 3,-4 2,0 4,0 8,0l1 0 0 9 -3 0c-1,0 -3,0 -4,1 -1,0 -1,2 -2,4 -2,6 -3,11 -5,12 -1,2 -3,4 -5,5 4,2 7,6 11,14l10 20 -10 0 -10 -20c-1,-4 -3,-7 -5,-8 -1,-2 -3,-2 -5,-2l0 30 -9 0 0 -65zm57 32c0,-11 2,-20 7,-25 4,-6 10,-9 18,-9 7,0 13,3 18,9 4,5 7,14 7,25 0,11 -3,20 -7,26 -5,5 -11,8 -18,8 -7,0 -13,-3 -18,-8 -5,-6 -7,-15 -7,-26zm9 0c0,9 1,15 4,19 4,4 7,6 12,6 4,0 8,-2 11,-6 3,-4 4,-10 4,-19 0,-8 -1,-14 -4,-19 -3,-4 -7,-6 -12,-6 -4,0 -8,2 -11,7 -3,4 -4,10 -4,18zm67 -32l20 0c5,0 9,0 11,1 3,1 5,3 7,6 2,2 3,6 3,10 0,6 -2,11 -6,14 6,3 9,8 9,16 0,5 -2,9 -5,13 -3,3 -8,5 -15,5l-24 0 0 -65zm9 27l9 0c4,0 7,0 8,-1 2,0 3,-1 4,-3 1,-1 2,-3 2,-5 0,-4 -1,-6 -3,-7 -2,-2 -6,-2 -10,-2l-10 0 0 18zm0 29l12 0c5,0 8,-1 10,-3 2,-1 3,-4 3,-7 0,-3 -1,-6 -3,-8 -2,-1 -6,-2 -11,-2l-11 0 0 20zm60 -56l9 0 0 28c3,0 5,-1 7,-2 1,-2 2,-6 5,-12 1,-5 3,-9 4,-10 1,-2 2,-3 4,-4 1,0 4,0 7,0l2 0 0 9 -3 0c-2,0 -3,0 -4,1 -1,0 -2,2 -2,4 -2,6 -4,11 -5,12 -1,2 -3,4 -6,5 4,2 8,6 12,14l10 20 -10 0 -10 -20c-2,-4 -4,-7 -5,-8 -2,-2 -3,-2 -6,-2l0 30 -9 0 0 -65zm95 57c-3,3 -6,5 -9,7 -3,2 -7,2 -10,2 -6,0 -10,-1 -14,-5 -3,-3 -5,-8 -5,-13 0,-4 1,-7 3,-10 1,-3 3,-5 6,-7 3,-2 7,-3 12,-4 8,-1 13,-2 17,-4l0 -2c0,-5 -1,-8 -3,-10 -2,-2 -5,-4 -10,-4 -4,0 -7,1 -10,3 -2,2 -3,5 -4,10l-9 -2c1,-7 4,-12 8,-15 3,-3 9,-5 16,-5 6,0 10,1 13,3 4,2 6,5 7,8 0,3 1,8 1,14l0 15c0,10 0,16 0,19 1,3 2,5 3,8l-10 0c-1,-2 -1,-5 -2,-8zm0 -25c-4,2 -9,3 -15,4 -4,1 -7,2 -8,3 -2,0 -3,2 -4,3 -1,2 -1,3 -1,5 0,4 1,6 3,8 2,2 4,3 8,3 3,0 6,-1 9,-3 2,-2 4,-4 6,-7 1,-2 2,-6 2,-12l0 -4z"/>
    <path class="fil3" d="M734 503l38 0 0 56 5 0 0 27 -7 0 0 -18 -42 0 0 18 -8 0 0 -27 5 0c6,-11 10,-29 9,-56zm8 9c-1,21 -3,37 -8,47l29 0 0 -47 -21 0zm60 -9l9 0 0 49 26 -49 9 0 0 65 -9 0 0 -50 -25 50 -10 0 0 -65zm85 35l0 -8c4,0 7,-1 8,-1 1,0 3,-1 4,-3 1,-1 2,-3 2,-6 0,-3 -1,-5 -3,-7 -1,-2 -4,-3 -6,-3 -5,0 -9,4 -11,11l-8 -1c2,-13 9,-19 19,-19 6,0 10,2 13,6 4,4 5,8 5,13 0,6 -2,10 -6,13 5,4 8,9 8,17 0,5 -2,10 -5,14 -4,4 -9,5 -15,5 -12,0 -19,-6 -21,-20l8 -2c1,4 3,8 5,10 2,2 5,3 8,3 3,0 6,-1 8,-3 2,-2 3,-5 3,-8 0,-2 -1,-5 -2,-6 -1,-2 -3,-3 -4,-4 -1,0 -4,-1 -7,-1l-3 0zm85 22c-3,3 -6,5 -9,7 -4,2 -7,2 -10,2 -6,0 -10,-1 -14,-5 -3,-3 -5,-8 -5,-13 0,-4 1,-7 3,-10 1,-3 3,-5 6,-7 3,-2 7,-3 12,-4 8,-1 13,-2 16,-4l1 -2c0,-5 -1,-8 -3,-10 -2,-2 -6,-4 -10,-4 -4,0 -8,1 -10,3 -2,2 -3,5 -4,10l-9 -2c1,-7 4,-12 8,-15 3,-3 9,-5 16,-5 6,0 10,1 13,3 4,2 6,5 6,8 1,3 2,8 2,14l0 15c0,10 0,16 0,19 1,3 1,5 3,8l-10 0c-1,-2 -1,-5 -2,-8zm-1 -25c-3,2 -8,3 -14,4 -4,1 -7,2 -8,3 -2,0 -3,2 -4,3 -1,2 -1,3 -1,5 0,4 1,6 3,8 2,2 4,3 8,3 3,0 6,-1 9,-3 2,-2 4,-4 6,-7 1,-2 1,-6 1,-12l0 -4zm39 -32l9 0 0 49 25 -49 10 0 0 65 -9 0 0 -50 -25 50 -10 0 0 -65zm30 -25l7 0c-1,5 -3,9 -5,12 -3,2 -6,4 -10,4 -5,0 -8,-2 -11,-4 -2,-3 -4,-7 -4,-12l6 0c1,5 4,8 8,8 3,0 5,0 6,-2 2,-1 3,-3 3,-6zm42 25l9 0 0 27 26 0 0 -27 9 0 0 65 -9 0 0 -29 -26 0 0 29 -9 0 0 -65zm245 0l42 0 0 65 -9 0 0 -56 -24 0 0 56 -9 0 0 -65zm67 32c0,-11 2,-20 7,-25 5,-6 11,-9 18,-9 7,0 13,3 18,9 5,5 7,14 7,25 0,11 -2,20 -7,26 -5,5 -11,8 -18,8 -7,0 -13,-3 -18,-8 -5,-6 -7,-15 -7,-26zm9 0c0,9 2,15 5,19 3,4 7,6 11,6 5,0 8,-2 11,-6 3,-4 5,-10 5,-19 0,-8 -2,-14 -5,-19 -3,-4 -7,-6 -11,-6 -4,0 -8,2 -11,7 -3,4 -5,10 -5,18zm71 -32l43 0 0 65 -10 0 0 -56 -24 0 0 32c0,8 0,13 0,15 -1,3 -2,5 -4,7 -1,1 -4,2 -7,2 -3,0 -5,0 -8,0l0 -9c5,0 7,-1 8,-1 1,0 1,-1 2,-2 0,-1 0,-4 0,-10l0 -43zm71 0l9 0 0 49 25 -49 10 0 0 65 -9 0 0 -50 -25 50 -10 0 0 -65zm73 0l31 0 0 9 -22 0 0 56 -9 0 0 -65zm53 90l0 -90 8 0 0 8c2,-3 4,-6 7,-8 2,-1 5,-2 8,-2 4,0 8,1 12,4 3,2 6,6 8,11 2,5 3,12 3,19 0,11 -2,19 -7,25 -5,6 -10,9 -16,9 -3,0 -6,0 -8,-2 -3,-1 -5,-3 -6,-6l0 32 -9 0zm8 -57c0,8 1,14 4,18 3,4 6,6 10,6 4,0 7,-2 10,-6 3,-4 5,-10 5,-19 0,-9 -2,-15 -5,-19 -2,-4 -6,-6 -10,-6 -4,0 -7,2 -10,6 -3,5 -4,11 -4,20zm99 24c-3,3 -6,5 -10,7 -3,2 -6,2 -10,2 -5,0 -10,-1 -13,-5 -3,-3 -5,-8 -5,-13 0,-4 1,-7 2,-10 2,-3 4,-5 7,-7 2,-2 6,-3 12,-4 7,-1 13,-2 16,-4l0 -2c0,-5 -1,-8 -2,-10 -2,-2 -6,-4 -11,-4 -4,0 -7,1 -9,3 -2,2 -4,5 -5,10l-9 -2c2,-7 4,-12 8,-15 4,-3 10,-5 17,-5 5,0 10,1 13,3 3,2 5,5 6,8 1,3 1,8 1,14l0 15c0,10 0,16 1,19 0,3 1,5 2,8l-9 0c-1,-2 -2,-5 -2,-8zm-1 -25c-3,2 -8,3 -15,4 -3,1 -6,2 -8,3 -1,0 -2,2 -3,3 -1,2 -1,3 -1,5 0,4 0,6 2,8 2,2 5,3 8,3 4,0 7,-1 9,-3 3,-2 5,-4 6,-7 1,-2 2,-6 2,-12l0 -4zm70 -57l9 0 0 31c4,-5 8,-8 13,-8 6,0 11,3 15,10 4,6 6,14 6,24 0,10 -2,19 -6,25 -4,6 -9,9 -15,9 -5,0 -9,-2 -13,-7l0 31 -9 0 0 -31c-4,5 -8,7 -13,7 -7,0 -12,-3 -16,-9 -3,-7 -5,-15 -5,-25 0,-8 1,-14 3,-19 2,-5 4,-9 7,-11 3,-3 7,-4 11,-4 5,0 9,3 13,8l0 -31zm9 58c0,16 4,24 12,24 3,0 6,-2 9,-6 3,-4 4,-11 4,-19 0,-9 -1,-15 -4,-19 -2,-4 -5,-6 -9,-6 -8,0 -12,9 -12,26zm-34 -1c0,9 1,16 4,19 2,4 5,6 9,6 8,0 12,-8 12,-24 0,-17 -4,-26 -13,-26 -3,0 -6,2 -9,6 -2,4 -3,11 -3,19zm94 -32l9 0 0 49 25 -49 10 0 0 65 -9 0 0 -50 -26 50 -9 0 0 -65zm114 0l0 65 -9 0 0 -26 -5 0c-3,0 -5,1 -7,2 -1,1 -4,4 -7,10l-8 14 -11 0 10 -18c3,-5 6,-8 9,-9 -5,-1 -9,-3 -12,-7 -2,-3 -3,-8 -3,-12 0,-6 1,-11 5,-14 3,-4 8,-5 14,-5l24 0zm-9 9l-12 0c-6,0 -9,1 -11,3 -1,2 -2,4 -2,7 0,4 1,7 3,9 3,1 7,2 12,2l10 0 0 -21z"/>
   </g>
   <line class="fil4 str0" x1="5" y1="455" x2="2032" y2= "455" />
  </g>
 </g>
</svg>
