<?xml version="1.0" encoding="UTF-8"?>
<!DOCTYPE svg PUBLIC "-//W3C//DTD SVG 1.0//EN" "http://www.w3.org/TR/2001/REC-SVG-20010904/DTD/svg10.dtd">
<!-- Creator: CorelDRAW 2018 (64-Bit) -->
<svg xmlns="http://www.w3.org/2000/svg" xml:space="preserve" width="1600px" height="1257px" version="1.0" style="shape-rendering:geometricPrecision; text-rendering:geometricPrecision; image-rendering:optimizeQuality; fill-rule:evenodd; clip-rule:evenodd"
viewBox="0 0 1600 1257.14"
 xmlns:xlink="http://www.w3.org/1999/xlink">
 <defs>
  <style type="text/css">
   <![CDATA[
    .fil0 {fill:#23568D}
   ]]>
  </style>
 </defs>
 <g id="Слой_x0020_1">
  <metadata id="CorelCorpID_0Corel-Layer"/>
  <g id="_2316739916512">
   <g>
    <g>
     <path class="fil0" d="M153.57 387.5c20.24,14.28 81.25,56.7 183.03,127.23 101.79,70.53 179.77,124.84 233.93,162.93 5.95,4.18 18.6,13.25 37.94,27.24 19.35,14 35.42,25.31 48.21,33.94 12.8,8.62 28.27,18.3 46.44,29.01 18.15,10.7 35.27,18.75 51.34,24.08 16.08,5.37 30.96,8.03 44.64,8.03l0.9 0 0.9 0c13.69,0 28.58,-2.66 44.65,-8.03 16.06,-5.33 33.2,-13.39 51.34,-24.08 18.15,-10.72 33.62,-20.39 46.42,-29.01 12.8,-8.63 28.86,-19.94 48.22,-33.94 19.33,-14 31.99,-23.06 37.95,-27.24 54.75,-38.09 194.05,-134.82 417.85,-290.18 43.45,-30.34 79.75,-66.96 108.91,-109.82 29.19,-42.84 43.76,-87.78 43.76,-134.8 0,-39.29 -14.14,-72.92 -42.42,-100.9 -28.27,-27.98 -61.76,-41.96 -100.44,-41.96l-1314.29 0c-45.83,0 -81.1,15.47 -105.8,46.42 -24.7,30.96 -37.05,69.65 -37.05,116.07 0,37.5 16.37,78.14 49.11,121.88 32.73,43.75 67.56,78.13 104.46,103.13z" data-original="#000000" data-old_color="#000000"/>
     <path class="fil0" d="M1510.7 483.03c-195.21,132.13 -343.45,234.81 -444.62,308.04 -33.93,24.99 -61.46,44.49 -82.59,58.47 -21.14,13.99 -49.25,28.28 -84.38,42.85 -35.11,14.6 -67.83,21.88 -98.2,21.88l-0.91 0 -0.89 0c-30.36,0 -63.1,-7.28 -98.22,-21.88 -35.11,-14.57 -63.24,-28.86 -84.37,-42.85 -21.13,-13.98 -48.66,-33.48 -82.58,-58.48 -80.37,-58.92 -228.28,-161.61 -443.75,-308.04 -33.94,-22.6 -64,-48.51 -90.19,-77.67l0 708.91c0,39.31 13.98,72.92 41.96,100.9 27.98,27.99 61.61,41.97 100.9,41.97l1314.29 0.01c39.28,0 72.92,-13.99 100.89,-41.98 27.99,-27.99 41.96,-61.59 41.96,-100.9l0 -708.91c-25.6,28.56 -55.35,54.47 -89.3,77.68z" data-original="#000000" data-old_color="#000000"/>
    </g>
   </g>
  </g>
 </g>
</svg>
