<?xml version="1.0" encoding="UTF-8"?>
<!DOCTYPE svg PUBLIC "-//W3C//DTD SVG 1.0//EN" "http://www.w3.org/TR/2001/REC-SVG-20010904/DTD/svg10.dtd">
<!-- Creator: CorelDRAW 2018 (64-Bit) -->
<svg xmlns="http://www.w3.org/2000/svg" xml:space="preserve" width="1159px" height="1600px" version="1.0" style="shape-rendering:geometricPrecision; text-rendering:geometricPrecision; image-rendering:optimizeQuality; fill-rule:evenodd; clip-rule:evenodd"
viewBox="0 0 1159 1600.11"
 xmlns:xlink="http://www.w3.org/1999/xlink">
 <defs>
  <style type="text/css">
   <![CDATA[
    .fil0 {fill:#23568D}
   ]]>
  </style>
 </defs>
 <g id="Слой_x0020_1">
  <metadata id="CorelCorpID_0Corel-Layer"/>
  <g id="_2316739897856">
   <g>
    <g>
     <path class="fil0" d="M579.5 0c-319.54,0 -579.5,259.96 -579.5,579.5 0,396.55 518.6,978.71 540.68,1003.3 20.73,23.1 56.94,23.06 77.64,0 22.08,-24.59 540.68,-606.75 540.68,-1003.3 -0.01,-319.54 -259.96,-579.5 -579.5,-579.5zm0 871.06c-160.77,0 -291.56,-130.8 -291.56,-291.56 0,-160.77 130.8,-291.56 291.56,-291.56 160.76,0 291.55,130.79 291.55,291.56 0,160.77 -130.79,291.56 -291.55,291.56z" data-original="#000000" data-old_color="#000000"/>
    </g>
   </g>
  </g>
 </g>
</svg>
