<?xml version="1.0" encoding="UTF-8"?>
<!DOCTYPE svg PUBLIC "-//W3C//DTD SVG 1.0//EN" "http://www.w3.org/TR/2001/REC-SVG-20010904/DTD/svg10.dtd">
<!-- Creator: CorelDRAW 2018 (64-Bit) -->
<svg xmlns="http://www.w3.org/2000/svg" xml:space="preserve" width="929px" height="1600px" version="1.0" style="shape-rendering:geometricPrecision; text-rendering:geometricPrecision; image-rendering:optimizeQuality; fill-rule:evenodd; clip-rule:evenodd"
viewBox="0 0 929 1599.2"
 xmlns:xlink="http://www.w3.org/1999/xlink">
 <defs>
  <style type="text/css">
   <![CDATA[
    .fil0 {fill:#23568D}
   ]]>
  </style>
 </defs>
 <g id="Слой_x0020_1">
  <metadata id="CorelCorpID_0Corel-Layer"/>
  <g id="_2316734957392">
   <g>
    <path class="fil0" d="M820.99 0l-712.98 0c-59.39,0 -108.01,48.57 -108.01,108.01l0 1383.13c0,59.44 48.62,108.06 108.01,108.06l712.98 0c59.39,0 108.01,-48.52 108.01,-108.01l0 -1383.18c0,-59.44 -48.62,-108.01 -108.01,-108.01zm-470.54 77.86l228.1 0c7.21,0 13.06,5.85 13.06,13.11 0,7.22 -5.84,13.07 -13.06,13.07l-228.1 0c-7.21,0 -13.06,-5.85 -13.06,-13.07 0,-7.26 5.85,-13.11 13.06,-13.11zm114.05 1467.33c-29.84,0 -54.01,-24.17 -54.01,-54.05 0,-29.88 24.17,-54.01 54.01,-54.01 29.84,0 54.01,24.13 54.01,54.01 0,29.88 -24.17,54.05 -54.01,54.05zm389.34 -145.89l-778.68 0 0 -1228 778.68 0 0 1228z" data-original="#000000" data-old_color="#000000"/>
   </g>
  </g>
 </g>
</svg>
