<?xml version="1.0" encoding="UTF-8"?>
<!DOCTYPE svg PUBLIC "-//W3C//DTD SVG 1.0//EN" "http://www.w3.org/TR/2001/REC-SVG-20010904/DTD/svg10.dtd">
<!-- Creator: CorelDRAW 2018 (64-Bit) -->
<svg xmlns="http://www.w3.org/2000/svg" xml:space="preserve" width="1600px" height="1479px" version="1.0" style="shape-rendering:geometricPrecision; text-rendering:geometricPrecision; image-rendering:optimizeQuality; fill-rule:evenodd; clip-rule:evenodd"
viewBox="0 0 1600 1479.15"
 xmlns:xlink="http://www.w3.org/1999/xlink">
 <defs>
  <style type="text/css">
   <![CDATA[
    .fil0 {fill:#23568D}
   ]]>
  </style>
 </defs>
 <g id="Слой_x0020_1">
  <metadata id="CorelCorpID_0Corel-Layer"/>
  <g id="_2316743682496">
   <g>
    <g id="Layer_1_65_">
     <g>
      <path class="fil0" d="M1596.8 624.5c-5.55,-11.81 -17.39,-19.37 -30.5,-19.37l-99.64 0c-63.35,-343.79 -365.24,-605.13 -727.07,-605.13 -407.78,0 -739.59,331.81 -739.59,739.59 0,407.79 331.77,739.56 739.59,739.56 263.18,0 508.62,-141.65 640.53,-369.59 18.59,-32.17 7.63,-73.26 -24.58,-91.88 -32.13,-18.62 -73.25,-7.66 -91.81,24.51 -107.98,186.58 -308.82,302.53 -524.14,302.53 -333.64,0 -605.13,-271.45 -605.13,-605.06 0,-333.68 271.49,-605.13 605.13,-605.13 287.38,0 528.16,201.57 589.5,470.63l-98.85 0c-13.11,0 -24.92,7.56 -30.5,19.37 -5.55,11.81 -3.75,25.74 4.63,35.78l168.09 201.7c6.4,7.66 15.83,12.08 25.84,12.08 9.98,0 19.44,-4.46 25.81,-12.08l168.09 -201.7c8.38,-10.08 10.15,-24 4.6,-35.81z" data-original="#000000" data-old_color="#000000"/>
      <path class="fil0" d="M739.59 168.1c-37.14,0 -67.23,30.09 -67.23,67.23l0 407.96c-30.4,21.31 -50.42,56.44 -50.42,96.34 0,64.88 52.8,117.68 117.69,117.68 17.77,0 34.51,-4.26 49.63,-11.37l233.87 134.98c10.62,6.16 22.12,9.05 33.56,9.05 23.22,0 45.82,-12.05 58.28,-33.63 18.55,-32.1 7.56,-73.26 -24.64,-91.81l-234.11 -135.18c-3.13,-35.54 -21.62,-66.59 -49.33,-85.99l0 -408.03c-0.06,-37.1 -30.19,-67.23 -67.3,-67.23zm0 621.91c-27.81,0 -50.41,-22.64 -50.41,-50.38 0,-27.78 22.63,-50.42 50.41,-50.42 27.78,0 50.42,22.64 50.42,50.42 0,27.74 -22.64,50.38 -50.42,50.38z" data-original="#000000" data-old_color="#000000"/>
     </g>
    </g>
   </g>
  </g>
 </g>
</svg>
